<?xml version="1.0" encoding="UTF-8"?>
<svg version="1.1" xmlns="http://www.w3.org/2000/svg" width="48" height="48">
<path d="M0 0 C0.93199219 0.50144531 1.86398438 1.00289062 2.82421875 1.51953125 C5.35181384 3.21385323 6.77610199 4.57562338 8.3125 7.1875 C8.45299434 14.07172249 4.72962102 19.40869901 1.3125 25.1875 C-2.64807533 25.27430713 -5.26352277 25.29456291 -8.6875 23.1875 C-8.914375 23.88875 -9.14125 24.59 -9.375 25.3125 C-11.08529421 29.05885874 -12.72105839 31.28847751 -15.6875 34.1875 C-20.70737194 34.85728628 -23.66320737 33.49348404 -27.9375 30.9375 C-28.97390625 30.33421875 -30.0103125 29.7309375 -31.078125 29.109375 C-33.72825981 27.1574793 -34.75767313 26.29448245 -35.6875 23.1875 C-36.37033878 17.88065517 -34.5790878 14.32916666 -31.9375 9.875 C-31.58945312 9.24271484 -31.24140625 8.61042969 -30.8828125 7.95898438 C-28.28409355 3.46897553 -28.28409355 3.46897553 -25.609375 2.20703125 C-23.6875 2.1875 -23.6875 2.1875 -20.6875 3.1875 C-20.130625 2.40375 -19.57375 1.62 -19 0.8125 C-13.21656018 -5.75248574 -7.00971801 -3.8616996 0 0 Z " fill="#0573C9" transform="translate(37.6875,8.8125)"/>
<path d="M0 0 C3.5625 0.5625 3.5625 0.5625 6.5625 2.625 C8.5625 5.5625 8.5625 5.5625 8.75 8.6875 C7.55634925 14.07086487 4.33887317 18.86728787 1.5625 23.5625 C-2.39807533 23.64930713 -5.01352277 23.66956291 -8.4375 21.5625 C-8.664375 22.26375 -8.89125 22.965 -9.125 23.6875 C-10.83529421 27.43385874 -12.47105839 29.66347751 -15.4375 32.5625 C-18.68132653 33.00773109 -20.511584 33.025458 -23.4375 31.5625 C-23.8515625 29.49609375 -23.8515625 29.49609375 -24.0625 27 C-24.13726562 26.17371094 -24.21203125 25.34742187 -24.2890625 24.49609375 C-24.36253906 23.53896484 -24.36253906 23.53896484 -24.4375 22.5625 C-21.4375 21.5625 -21.4375 21.5625 -17.4375 21.5625 C-16.02723732 20.05963508 -16.02723732 20.05963508 -15 17.984375 C-14.36964844 16.86095703 -14.36964844 16.86095703 -13.7265625 15.71484375 C-13.30117188 14.92207031 -12.87578125 14.12929688 -12.4375 13.3125 C-5.65881148 0.92598733 -5.65881148 0.92598733 0 0 Z " fill="#FBCF02" transform="translate(37.4375,10.4375)"/>
<path d="M0 0 C1.21247446 0.63802495 2.42231319 1.28121151 3.625 1.9375 C3.625 2.2675 3.625 2.5975 3.625 2.9375 C2.1090625 3.123125 2.1090625 3.123125 0.5625 3.3125 C-5.12990349 4.94218003 -7.47113461 10.15076299 -10.375 14.9375 C-10.96023437 15.88882812 -11.54546875 16.84015625 -12.1484375 17.8203125 C-13.58043464 20.18008244 -14.98863579 22.55071912 -16.375 24.9375 C-18.355 24.6075 -20.335 24.2775 -22.375 23.9375 C-19.70833333 18.60416667 -17.04166667 13.27083333 -14.375 7.9375 C-16.85 6.9475 -16.85 6.9475 -19.375 5.9375 C-18.10590537 2.02445821 -16.91243024 0.08139712 -13.375 -2.0625 C-8.34145199 -3.74034934 -4.5923756 -2.29212375 0 0 Z " fill="#1A9652" transform="translate(36.375,8.0625)"/>
<path d="M0 0 C3.5625 0.5625 3.5625 0.5625 6.5625 2.625 C8.5625 5.5625 8.5625 5.5625 8.75 8.6875 C7.55634925 14.07086487 4.33887317 18.86728787 1.5625 23.5625 C-4.0625 23.8125 -4.0625 23.8125 -7.4375 21.5625 C-7.0045911 18.53213773 -6.46919454 16.61247985 -4.8125 14 C-3.23579994 11.71911979 -3.23579994 11.71911979 -3.5625 9.4375 C-4.54626179 7.32943901 -5.69078663 6.08138119 -7.4375 4.5625 C-5.05804913 1.51680289 -3.87891882 0.63473217 0 0 Z " fill="#E42532" transform="translate(37.4375,10.4375)"/>
</svg>
